<?xml version="1.0" standalone="no"?><!DOCTYPE svg PUBLIC "-//W3C//DTD SVG 1.1//EN" "http://www.w3.org/Graphics/SVG/1.1/DTD/svg11.dtd"><svg t="1507718876722" class="icon" style="" viewBox="0 0 1024 1024" version="1.1" xmlns="http://www.w3.org/2000/svg" p-id="14922" xmlns:xlink="http://www.w3.org/1999/xlink" width="32" height="32"><defs><style type="text/css"></style></defs><path d="M409.6 48.64c-66.56 15.36-103.253333 32.426667-149.333333 66.56-51.2 38.4-113.493333 106.666667-133.12 145.066667-9.386667 18.773333-20.48 40.106667-23.893333 46.933333-28.16 51.2-34.986667 69.12-34.986667 85.333333 0 9.386667-5.973333 29.866667-13.653333 43.52-24.746667 48.64-10.24 231.253333 23.04 289.28 4.266667 6.826667 11.093333 21.333333 15.36 31.573333 11.093333 24.746667 119.466667 139.093333 141.653333 148.48 9.386667 4.266667 29.013333 15.36 42.666667 24.746667 14.506667 9.386667 31.573333 18.773333 38.4 21.333333 6.826667 2.56 23.893333 11.093333 36.693333 17.92 13.653333 5.973333 31.573333 11.946667 40.106667 11.946667 7.68 0 29.013333 5.973333 45.226667 12.8 43.52 17.92 192.853333 17.066667 234.666667-0.853333 72.533333-30.72 91.306667-43.52 138.24-95.573333 47.786667-51.2 102.4-145.066667 102.4-173.226667 0-7.68 5.973333-28.16 13.653333-46.08 17.066667-40.96 12.8-218.453333-7.68-284.16-18.773333-61.44-61.44-142.506667-91.306667-174.933333-13.653333-15.36-27.306667-37.546667-30.72-50.346667-4.266667-21.333333-42.666667-58.88-93.013333-90.453333-58.88-36.693333-203.093333-52.053333-294.4-29.866667zm126.293333 72.533333c5.12 5.12 26.453333 11.093333 46.08 12.8 88.746667 7.68 189.44 93.013333 239.786667 203.093333 8.533333 18.773333 21.333333 45.226667 28.16 58.026667 17.92 36.693333 17.066667 267.093333-1.706667 310.613333-40.96 93.866667-52.053333 111.786667-103.253333 161.28-52.906667 52.053333-86.186667 63.146667-193.706667 63.146667-67.413333 0-104.96-3.413333-122.026667-11.946667-12.8-6.826667-40.96-19.626667-62.293333-28.16-92.16-36.693333-178.346667-116.053333-221.013333-202.24-24.746667-48.64-26.453333-58.88-26.453333-141.653333 0.853333-61.44 4.266667-96.426667 12.8-110.933333 6.826667-11.946667 11.946667-29.866667 12.8-39.253333 0-10.24 5.973333-23.04 12.8-29.013333 6.826667-5.973333 12.8-16.213333 12.8-22.186667 0-15.36 56.32-95.573333 89.6-125.44 38.4-35.84 101.546667-75.093333 147.626667-91.306667 47.786667-17.92 113.493333-21.333333 128-6.826667z" p-id="14923" fill="#0e932e"></path><path d="M350.72 329.386667c-21.333333 17.92-26.453333 29.013333-26.453333 54.613333 0 27.306667 5.12 36.693333 28.16 54.613333 37.546667 29.013333 58.026667 28.16 81.066667-3.413333 25.6-34.986667 23.893333-67.413333-5.973333-100.693333-30.72-33.28-42.666667-34.133333-76.8-5.12z" p-id="14924" fill="#0e932e"></path><path d="M599.04 326.826667c-13.653333 14.506667-18.773333 30.72-18.773333 59.733333 0 35.84 2.56 41.813333 22.186667 48.64 23.893333 9.386667 31.573333 6.826667 61.44-19.626667 12.8-11.946667 18.773333-27.306667 18.773333-48.64 0-55.466667-47.786667-78.506667-83.626667-40.106667z" p-id="14925" fill="#0e932e"></path><path d="M456.533333 588.8c-50.346667 11.946667-94.72 35.84-125.44 66.56-29.866667 28.16-32.426667 34.986667-32.426667 76.8 0 44.373333 0.853333 45.226667 23.893333 42.666667 18.773333-1.706667 23.893333-6.826667 25.6-29.866667 3.413333-30.72 23.04-48.64 88.746667-78.506667 80.213333-35.84 186.026667-12.8 192.853333 41.813333 6.826667 58.026667 31.573333 84.48 62.293333 68.266667 11.946667-6.826667 16.213333-17.92 16.213333-46.933333 0-106.666667-120.32-174.08-251.733333-140.8z" p-id="14926" fill="#0e932e"></path></svg>