<?xml version="1.0" standalone="no"?><!DOCTYPE svg PUBLIC "-//W3C//DTD SVG 1.1//EN" "http://www.w3.org/Graphics/SVG/1.1/DTD/svg11.dtd"><svg t="1507801594406" class="icon" style="" viewBox="0 0 1024 1024" version="1.1" xmlns="http://www.w3.org/2000/svg" p-id="3346" xmlns:xlink="http://www.w3.org/1999/xlink" width="32" height="32"><defs><style type="text/css"></style></defs><path d="M706.012959 64.920473c-3.430016 0-332.133041-0.87235-332.133042-0.87235-58.564193 0-110.339002 47.602477-110.339002 105.235957l-0.369622 6.744333-31.980034 0.770985c-58.574432 0-106.415473 53.587086-106.415474 111.217496v559.945478c0 57.628362 52.153647 111.988481 110.715792 111.988482h415.162974c58.569312 0 110.715792-47.13968 110.715792-104.778281v-7.520438l27.686883 0.310237c58.553954 0 110.700434-54.349881 110.700433-111.999744V288.6773L706.012959 64.920473z m0 55.974787v-0.030717L844.39618 288.6773h-83.024814c-29.486873 0-55.362503-54.822916-55.362503-83.903307 0.004096-0.001024 0.004096-29.458205 0.004096-83.878733z m0.243684 731.732958c0 28.519302-26.544227 64.901019-55.601068 64.901019H235.493625c-29.054794 0-68.722159-41.047563-68.722159-69.565841V288.016894c0-28.519302 37.040076-68.655607 66.08463-68.655606l30.317245-0.910235v517.521814c0 57.6386 52.143408 111.988481 110.7076 111.988481l332.375702-0.299998v4.966868z m151.503288-116.66559c0 28.530565-39.660198 69.577103-68.702705 69.577104h-428.547203c-29.041483 0-55.345097-41.046539-55.345097-69.577104V176.028413c0-28.517254 26.303614-69.567888 55.345097-69.567889h303.509303c-0.444366 64.494537 0 126.28192 0 126.281921 0 58.151567 38.383413 97.695042 97.351017 97.695042h96.394707v405.525141h-0.005119zM706.012959 456.489033H456.920089c-15.288656 0-27.681764 12.524165-27.681764 27.975619 0 15.442238 12.393108 27.966404 27.681764 27.966404H706.012959c15.294799 0 27.686883-12.524165 27.686883-27.966404 0-15.45043-12.392084-27.975619-27.686883-27.975619z m0 139.855568H456.920089c-15.288656 0-27.681764 12.527237-27.681764 27.971524s12.393108 27.961284 27.681764 27.961284H706.012959c15.294799 0 27.686883-12.516998 27.686883-27.961284S721.307758 596.344601 706.012959 596.344601z" fill="#8a8a8a" p-id="3347"></path></svg>