<?xml version="1.0" standalone="no"?><!DOCTYPE svg PUBLIC "-//W3C//DTD SVG 1.1//EN" "http://www.w3.org/Graphics/SVG/1.1/DTD/svg11.dtd"><svg t="1507718657973" class="icon" style="" viewBox="0 0 1024 1024" version="1.1" xmlns="http://www.w3.org/2000/svg" p-id="11327" xmlns:xlink="http://www.w3.org/1999/xlink" width="32" height="32"><defs><style type="text/css"></style></defs><path d="M811.008 860.672H308.736c-30.72 0-55.296-27.648-55.296-61.44v-675.84c0-33.792 24.576-61.44 55.296-61.44h330.752c8.704 0 15.36 6.656 15.36 15.36s-6.656 15.36-15.36 15.36H308.736c-13.312 0-24.576 13.824-24.576 30.72v675.84c0 16.896 11.264 30.72 24.576 30.72h502.272c13.312 0 24.576-13.824 24.576-30.72V305.664L691.2 136.192c-5.632-6.656-4.608-16.384 1.536-21.504 6.656-5.632 16.384-4.608 21.504 1.536l147.968 173.568c2.56 2.56 3.584 6.144 3.584 9.728V798.72c0.512 34.304-24.064 61.952-54.784 61.952z" p-id="11328" fill="#0e932e"></path><path d="M715.264 964.608H212.992c-30.72 0-55.296-27.648-55.296-61.44v-675.84c0-8.704 6.656-15.36 15.36-15.36s15.36 6.656 15.36 15.36v675.84c0 16.896 11.264 30.72 24.576 30.72h502.272c8.704 0 15.36 6.656 15.36 15.36s-6.656 15.36-15.36 15.36z" p-id="11329" fill="#0e932e"></path><path d="M734.208 522.752H369.664c-8.704 0-15.36-6.656-15.36-15.36s6.656-15.36 15.36-15.36h364.544c8.704 0 15.36 6.656 15.36 15.36s-6.656 15.36-15.36 15.36zM734.208 603.648H369.664c-8.704 0-15.36-6.656-15.36-15.36s6.656-15.36 15.36-15.36h364.544c8.704 0 15.36 6.656 15.36 15.36s-6.656 15.36-15.36 15.36zM648.192 685.056H369.664c-8.704 0-15.36-6.656-15.36-15.36s6.656-15.36 15.36-15.36h278.528c8.704 0 15.36 6.656 15.36 15.36s-6.656 15.36-15.36 15.36zM586.752 441.344H369.664c-8.704 0-15.36-6.656-15.36-15.36s6.656-15.36 15.36-15.36h217.088c8.704 0 15.36 6.656 15.36 15.36s-6.656 15.36-15.36 15.36zM791.04 315.392h-151.552c-8.704 0-15.36-6.656-15.36-15.36V77.312c0-8.704 6.656-15.36 15.36-15.36s15.36 6.656 15.36 15.36v207.36h136.192c8.704 0 15.36 6.656 15.36 15.36s-6.656 15.36-15.36 15.36z" p-id="11330" fill="#0e932e"></path></svg>