<?xml version="1.0" standalone="no"?><!DOCTYPE svg PUBLIC "-//W3C//DTD SVG 1.1//EN" "http://www.w3.org/Graphics/SVG/1.1/DTD/svg11.dtd"><svg t="1507721988254" class="icon" style="" viewBox="0 0 1024 1024" version="1.1" xmlns="http://www.w3.org/2000/svg" p-id="18082" xmlns:xlink="http://www.w3.org/1999/xlink" width="32" height="32"><defs><style type="text/css"></style></defs><path d="M906.199549 951.282838 495.172241 951.282838c-22.605857 0-40.932248-18.325367-40.932248-40.932248s18.326391-40.932248 40.932248-40.932248l370.066407 0 0-714.267726L495.172241 155.150616c-22.605857 0-40.932248-18.326391-40.932248-40.932248s18.326391-40.932248 40.932248-40.932248l411.027307 0c22.606881 0 40.903595 17.869996 40.903595 40.476877l0 796.474007C947.102121 932.843884 928.805406 951.282838 906.199549 951.282838zM687.182346 471.352231 222.679104 471.352231l160.483064-160.51274c15.984043-15.987113 15.981996-41.903366-0.005117-57.886385-15.987113-15.984043-41.903366-15.980973-57.886385 0.005117L95.252923 483.017922c-15.97995 15.98302-15.981996 41.891086-0.005117 57.877175l230.016721 230.142587c7.993045 7.997138 18.4717 11.997242 28.951379 11.997242 10.471492 0 20.944008-3.992941 28.935006-11.980869 15.989159-15.980973 15.996322-41.897226 0.016373-57.886385L223.30639 553.216727l463.876979 0c22.606881 0 40.932248-18.325367 40.932248-40.932248C728.114594 489.678622 709.789227 471.352231 687.182346 471.352231z" p-id="18083" fill="#0e932e"></path></svg>