<?xml version="1.0" standalone="no"?><!DOCTYPE svg PUBLIC "-//W3C//DTD SVG 1.1//EN" "http://www.w3.org/Graphics/SVG/1.1/DTD/svg11.dtd"><svg t="1507718775475" class="icon" style="" viewBox="0 0 1030 1024" version="1.1" xmlns="http://www.w3.org/2000/svg" p-id="12560" xmlns:xlink="http://www.w3.org/1999/xlink" width="32.1875" height="32"><defs><style type="text/css"></style></defs><path d="M914.573 522.149 451.221 56.57 5.12 58.27l0.672 412.526 479.956 482.231c30.09 30.26 78.505 30.66 108.1 0.91l321.629-323.159C945.088 601.018 944.688 552.388 914.573 522.149L914.573 522.149zM197.737 324.437c-41.877 0-75.81-34.102-75.81-76.172 0-42.067 33.932-76.175 75.81-76.175 41.862 0 75.795 34.103 75.795 76.175C273.532 290.329 239.592 324.437 197.737 324.437L197.737 324.437zM625.903 983.317c-10.11 0-20.335-1.84-30.165-5.65l4.73-12.22c25.79 9.96 54.815 3.99 73.935-15.22l321.614-323.169c27.025-27.15 26.615-71.72-0.905-99.37L533.684 64.047l-53.015 0.2-0.055-13.113 58.505-0.218 1.93 1.935 463.359 465.586c32.595 32.75 32.99 85.63 0.91 117.87L683.693 959.477C668.218 975.037 647.318 983.317 625.903 983.317L625.903 983.317z" p-id="12561" fill="#0e932e"></path></svg>